<svg xmlns="http://www.w3.org/2000/svg" xmlns:xlink="http://www.w3.org/1999/xlink" width="16" height="16" viewBox="0 0 16 16">
  <defs>
    <clipPath id="clip-path">
      <rect id="Прямоугольник_2236" data-name="Прямоугольник 2236" width="16" height="16" transform="translate(10808 9066)" fill="#fff"/>
    </clipPath>
  </defs>
  <g id="Группа_масок_71" data-name="Группа масок 71" transform="translate(-10808 -9066)" clip-path="url(#clip-path)">
    <g id="instagram_1_" data-name="instagram (1)" transform="translate(10808 9066)">
      <path id="Контур_3807" data-name="Контур 3807" d="M11.668,0H4.33A4.336,4.336,0,0,0,0,4.331v7.338A4.336,4.336,0,0,0,4.33,16h7.338A4.336,4.336,0,0,0,16,11.669V4.331A4.336,4.336,0,0,0,11.668,0ZM8,12.375A4.375,4.375,0,1,1,12.374,8,4.38,4.38,0,0,1,8,12.375Zm4.479-7.718a1.293,1.293,0,1,1,1.293-1.293A1.294,1.294,0,0,1,12.479,4.657Zm0,0" transform="translate(0.001 0)" fill="#fff"/>
      <path id="Контур_3808" data-name="Контур 3808" d="M149.457,146.02a3.437,3.437,0,1,0,3.437,3.437A3.441,3.441,0,0,0,149.457,146.02Zm0,0" transform="translate(-141.457 -141.457)" fill="#fff"/>
      <path id="Контур_3809" data-name="Контур 3809" d="M388.347,96.3a.355.355,0,1,0,.355.355A.355.355,0,0,0,388.347,96.3Zm0,0" transform="translate(-375.868 -93.291)" fill="#fff"/>
    </g>
  </g>
</svg>
