<svg id="Сгруппировать_15" data-name="Сгруппировать 15" xmlns="http://www.w3.org/2000/svg" width="19" height="19" viewBox="0 0 19 19">
  <path id="Контур_1" data-name="Контур 1" d="M17.475,12.471a10.787,10.787,0,0,1-3.388-.54,1.548,1.548,0,0,0-1.506.318l-2.136,1.613A11.806,11.806,0,0,1,5.137,8.555L6.7,6.474A1.536,1.536,0,0,0,7.08,4.918a10.8,10.8,0,0,1-.542-3.393A1.526,1.526,0,0,0,5.014,0H1.525A1.526,1.526,0,0,0,0,1.525,17.5,17.5,0,0,0,17.475,19,1.526,1.526,0,0,0,19,17.475V14A1.526,1.526,0,0,0,17.475,12.471Z"/>
</svg>
